<svg width="18" height="18" viewBox="0 0 18 18" fill="none" xmlns="http://www.w3.org/2000/svg">
<path d="M17 2.77778L15.2222 9H4.89041M16.1111 12.5556H5.44444L3.66667 1H1M8.55556 4.55556L10.3333 6.33333M10.3333 6.33333L12.1111 4.55556M10.3333 6.33333V1M6.33333 16.1111C6.33333 16.602 5.93536 17 5.44444 17C4.95353 17 4.55556 16.602 4.55556 16.1111C4.55556 15.6202 4.95353 15.2222 5.44444 15.2222C5.93536 15.2222 6.33333 15.6202 6.33333 16.1111ZM16.1111 16.1111C16.1111 16.602 15.7132 17 15.2222 17C14.7313 17 14.3333 16.602 14.3333 16.1111C14.3333 15.6202 14.7313 15.2222 15.2222 15.2222C15.7132 15.2222 16.1111 15.6202 16.1111 16.1111Z" stroke="white" stroke-linecap="round" stroke-linejoin="round"/>
</svg>
