<svg width="77" height="77" viewBox="0 0 77 77" fill="none" xmlns="http://www.w3.org/2000/svg">
<path fill-rule="evenodd" clip-rule="evenodd" d="M68.6167 37.6889C70.2203 35.36 70.2307 32.3243 70.2307 29.3247C70.2307 15.2061 52.7662 18.0334 52.7662 18.0334C52.7662 18.0334 53.1594 6.36155 38.8712 6.36155C25.6797 6.36155 24.2002 17.8794 24.2002 17.8794C24.2002 17.8794 6.61161 16.4476 6.61161 30.6387C6.58957 32.8492 7.19773 35.0292 8.38082 36.9821L2.83523 39.2113C0.957183 36.374 -0.0215733 33.1484 0.000360711 29.8685C0.000360711 21.1327 6.93235 12.0072 19.6582 12.0072C22.3379 4.65788 29.6941 0 38.9229 0C49.7968 0 55.6735 5.90845 57.7945 11.9981C69.1029 11.9981 76.9971 20.3261 76.9971 29.5332C77.0695 33.5421 75.7763 37.4796 73.2828 40.8425L68.6167 37.6889ZM31.1426 52.9403C31.2253 36.4565 39.4196 38.2145 40.4542 27.4126L43.6615 27.0049C49.7658 35.224 51.4626 43.0627 46.993 53.3481C52.9524 51.6082 54.0802 43.3074 69.6616 44.2861L71.0687 44.7663C71.0687 44.7663 66.7854 61.7033 44.0236 64.9475L41.5923 77L28.9698 75.1242L32.798 65.1559C14.3299 62.8813 5.61837 44.0414 5.61837 44.0414L8.0187 41.9571C15.5197 47.2403 23.3725 43.543 31.1426 52.9403Z" fill="black"/>
</svg>
