<svg width="30" height="30" viewBox="0 0 30 30" fill="none" xmlns="http://www.w3.org/2000/svg">
<path d="M9.93313 8.77778H23L21.2222 15H10.8904M22.1111 18.5556H11.4444L9.66667 7H7M12.3333 22.1111C12.3333 22.602 11.9354 23 11.4444 23C10.9535 23 10.5556 22.602 10.5556 22.1111C10.5556 21.6202 10.9535 21.2222 11.4444 21.2222C11.9354 21.2222 12.3333 21.6202 12.3333 22.1111ZM22.1111 22.1111C22.1111 22.602 21.7132 23 21.2222 23C20.7313 23 20.3333 22.602 20.3333 22.1111C20.3333 21.6202 20.7313 21.2222 21.2222 21.2222C21.7132 21.2222 22.1111 21.6202 22.1111 22.1111Z" stroke="#5B5A5F" stroke-width="2" stroke-linecap="round" stroke-linejoin="round"/>
</svg>
