<svg width="17" height="17" viewBox="0 0 17 17" fill="none" xmlns="http://www.w3.org/2000/svg">
<path fill-rule="evenodd" clip-rule="evenodd" d="M0 3.33333C0 1.49238 1.49238 0 3.33333 0H13.3333C15.1742 0 16.6667 1.49238 16.6667 3.33333V13.3333C16.6667 15.1742 15.1742 16.6667 13.3333 16.6667H3.33333C1.49238 16.6667 0 15.1742 0 13.3333V3.33333ZM3.33333 1.66667C2.41286 1.66667 1.66667 2.41286 1.66667 3.33333V13.3333C1.66667 14.2538 2.41286 15 3.33333 15H8.33333V9.16667H7.5C7.03975 9.16667 6.66667 8.79358 6.66667 8.33333C6.66667 7.87308 7.03975 7.5 7.5 7.5H8.33333V6.25C8.33333 4.63917 9.63917 3.33333 11.25 3.33333H11.75C12.2103 3.33333 12.5833 3.70643 12.5833 4.16667C12.5833 4.6269 12.2103 5 11.75 5H11.25C10.5597 5 10 5.55964 10 6.25V7.5H11.75C12.2103 7.5 12.5833 7.87308 12.5833 8.33333C12.5833 8.79358 12.2103 9.16667 11.75 9.16667H10V15H13.3333C14.2538 15 15 14.2538 15 13.3333V3.33333C15 2.41286 14.2538 1.66667 13.3333 1.66667H3.33333Z" fill="#5B5A5F"/>
</svg>
