<svg width="14" height="14" viewBox="0 0 14 14" fill="none" xmlns="http://www.w3.org/2000/svg">
<path d="M7.38051 0.834974L8.61897 4.87344C8.67281 5.03497 8.83435 5.11574 8.99589 5.11574H13.0344C13.4382 5.11574 13.5997 5.6542 13.2767 5.89651L9.99204 8.31959C9.85743 8.42728 9.80358 8.61574 9.85743 8.77728L11.419 12.9234C11.5267 13.3004 11.1228 13.6234 10.7997 13.3811L7.27281 10.7427C7.1382 10.635 6.94974 10.635 6.7882 10.7427L3.23435 13.3811C2.91128 13.6234 2.48051 13.3004 2.61512 12.9234L4.12281 8.77728C4.17666 8.61574 4.12281 8.42728 3.9882 8.31959L0.703584 5.89651C0.380507 5.6542 0.568969 5.11574 0.945892 5.11574H4.98435C5.17281 5.11574 5.30743 5.0619 5.36128 4.87344L6.62666 0.808051C6.73435 0.431128 7.27281 0.458051 7.38051 0.834974ZM7.00358 3.44678C6.99999 3.81501 6.99999 9.03072 6.99999 9.28722C7.05022 9.3282 7.78968 9.87782 9.21835 10.9361C9.40676 11.0774 9.64227 10.889 9.57947 10.6692L8.69844 8.35158C8.60455 8.14428 8.69844 8.00929 8.81457 7.93826L10.6628 6.64896C10.8512 6.50766 10.757 6.19364 10.5215 6.19364H8.3517C8.25749 6.19364 8.01012 6.16217 7.94299 5.92007L7.22432 3.61943C7.19319 3.51046 7.09699 3.45165 7.00358 3.44678Z" fill="black"/>
</svg>
