<svg width="16" height="16" viewBox="0 0 16 16" fill="none" xmlns="http://www.w3.org/2000/svg">
<path d="M15.7015 6.12816L10.0058 0.43236C9.89983 0.326151 9.75885 0.267561 9.60904 0.267561H9.6085C9.45844 0.267561 9.31746 0.326151 9.21125 0.431827L9.03069 0.612646C8.91645 0.727414 8.85708 0.886038 8.86777 1.04683L9.01194 3.20508L7.67492 4.5421L10.6066 5.0065L11.2499 5.64987L7.20761 5.00945L7.19369 5.02337L4.94875 2.31134C5.29117 1.98926 5.46691 1.66342 5.48403 1.32022C5.50384 0.917355 5.30321 0.511014 4.87063 0.0784343C4.76602 -0.0261448 4.5967 -0.0261448 4.49237 0.0784343C4.3878 0.183045 4.3878 0.352359 4.49237 0.456687C4.81204 0.776349 4.96157 1.05027 4.94953 1.29373C4.94016 1.48605 4.82621 1.68508 4.60633 1.89775L4.42657 1.68026C4.12456 1.37796 3.72142 1.21159 3.29153 1.21159C2.8619 1.21159 2.45879 1.37799 2.15678 1.68026C1.85448 1.98227 1.68811 2.38541 1.68811 2.8153C1.68811 3.24493 1.85451 3.64804 2.17552 3.96692L2.36305 4.12235L2.15681 4.32859C1.85451 4.6306 1.68815 5.03374 1.68815 5.46335C1.68815 5.89298 1.85454 6.29609 2.15681 6.5981C2.45882 6.9004 2.86196 7.06677 3.29157 7.06677C3.72145 7.06677 4.12459 6.90037 4.42661 6.5981L4.84687 6.17785L5.49932 6.71767L4.22519 7.9918L9.34612 9.90153L9.51571 10.0417L9.35414 10.4751L3.80951 8.40749L3.0714 9.14565L0.913144 9.00173C0.753705 8.99157 0.593733 9.05016 0.478182 9.1649L0.298429 9.34519C0.191969 9.45111 0.133911 9.59262 0.133911 9.74272C0.133911 9.89278 0.19222 10.0335 0.298429 10.1392L5.99448 15.8352C6.1004 15.9414 6.24166 16 6.39144 16C6.52894 15.9987 6.68249 15.9417 6.78869 15.8355L6.96926 15.6549C7.0835 15.5401 7.14315 15.3818 7.13218 15.221L6.98801 13.0625L9.78562 10.2652L13.1463 13.0467C13.1961 13.0877 13.2565 13.108 13.317 13.108C13.3857 13.108 13.4542 13.0815 13.5061 13.0296C13.6038 12.9323 13.6113 12.7763 13.523 12.6698L10.7414 9.30939L12.3943 7.65647L8.68372 6.82344L8.15995 6.19079L8.16691 6.15951L12.8421 7.20868L12.9288 7.122L15.0868 7.26592C15.0994 7.26674 15.1119 7.26727 15.1248 7.26727C15.2727 7.26727 15.4153 7.20843 15.5218 7.10276L15.7013 6.92272C15.8077 6.81679 15.8661 6.67582 15.8661 6.526C15.866 6.37559 15.8077 6.23433 15.7015 6.12816ZM6.41044 15.4567L6.37273 15.457L0.676681 9.76093L0.676964 9.72347L0.856184 9.54372C0.861544 9.53811 0.868504 9.53541 0.875432 9.53541C0.875965 9.53541 0.87678 9.53566 0.877313 9.53566L3.0567 9.68093L3.22015 9.84438L3.28649 9.91072L6.45245 13.0767L6.59048 15.2769L6.41044 15.4567ZM8.23509 11.6038L4.43648 10.3042L3.57696 9.44472L8.40788 11.0974L8.23509 11.6038ZM4.04832 6.21991C3.84716 6.42108 3.57859 6.53183 3.29153 6.53183C3.00476 6.53183 2.73619 6.42108 2.53503 6.21991C2.33386 6.01875 2.22311 5.75016 2.22311 5.46341C2.22311 5.17663 2.33386 4.90807 2.53503 4.7069L2.77713 4.4648L4.433 5.83552L4.04832 6.21991ZM8.46462 7.39693L10.3615 9.68921L11.3037 10.8274L10.1654 9.88554L10.1657 9.88526L5.87915 6.33788L5.87861 6.33841L3.15617 4.08573L3.67007 3.57183L3.8592 3.76096C3.91136 3.81312 3.97986 3.83933 4.04832 3.83933C4.11654 3.83933 4.18503 3.81312 4.23745 3.76096C4.34178 3.65635 4.34178 3.48703 4.23745 3.38271L3.48066 2.6262C3.37633 2.52159 3.20699 2.52159 3.10241 2.6262C2.99808 2.73053 2.99808 2.89987 3.10241 3.00445L3.29153 3.19358L2.74209 3.74306L2.53503 3.57186C2.33386 3.3707 2.22311 3.1021 2.22311 2.81536C2.22311 2.52833 2.33386 2.25974 2.53503 2.05857C2.73619 1.85741 3.00476 1.74665 3.29153 1.74665C3.57856 1.74665 3.84716 1.85741 4.0312 2.04011L8.46462 7.39693ZM15.323 6.54412L15.1438 6.72388C15.1382 6.72949 15.1309 6.7335 15.1229 6.7319L12.9432 6.58663L9.5475 3.19092L9.40947 0.990648L9.58951 0.810613L9.62722 0.810331L15.3233 6.50638L15.323 6.54412Z" fill="black" fill-opacity="0.9"/>
</svg>
