<svg width="18" height="18" viewBox="0 0 18 18" fill="none" xmlns="http://www.w3.org/2000/svg">
<path fill-rule="evenodd" clip-rule="evenodd" d="M0.666664 3.99996C0.666664 2.15901 2.15905 0.666626 4 0.666626H14C15.8409 0.666626 17.3333 2.15901 17.3333 3.99996V14C17.3333 15.8409 15.8409 17.3333 14 17.3333H4C2.15905 17.3333 0.666664 15.8409 0.666664 14V3.99996ZM4 2.33329C3.07952 2.33329 2.33333 3.07948 2.33333 3.99996V14C2.33333 14.9205 3.07952 15.6666 4 15.6666H14C14.9205 15.6666 15.6667 14.9205 15.6667 14V3.99996C15.6667 3.07948 14.9205 2.33329 14 2.33329H4ZM9 6.49996C7.61925 6.49996 6.5 7.61921 6.5 8.99996C6.5 10.3807 7.61925 11.5 9 11.5C10.3807 11.5 11.5 10.3807 11.5 8.99996C11.5 7.61921 10.3807 6.49996 9 6.49996ZM4.83333 8.99996C4.83333 6.69878 6.69881 4.83329 9 4.83329C11.3012 4.83329 13.1667 6.69878 13.1667 8.99996C13.1667 11.3011 11.3012 13.1666 9 13.1666C6.69881 13.1666 4.83333 11.3011 4.83333 8.99996ZM13.5833 5.66663C14.2737 5.66663 14.8333 5.10698 14.8333 4.41663C14.8333 3.72627 14.2737 3.16663 13.5833 3.16663C12.893 3.16663 12.3333 3.72627 12.3333 4.41663C12.3333 5.10698 12.893 5.66663 13.5833 5.66663Z" fill="#5B5A5F"/>
</svg>
