<svg width="16" height="16" viewBox="0 0 16 16" fill="none" xmlns="http://www.w3.org/2000/svg">
<g clip-path="url(#clip0_8_122)">
<path d="M15 0V16H1V0H15ZM14 1H2V15H14V1ZM8 4.5C10.4853 4.5 12.5 6.51472 12.5 9C12.5 11.4853 10.4853 13.5 8 13.5C5.51472 13.5 3.5 11.4853 3.5 9C3.5 6.51472 5.51472 4.5 8 4.5ZM8.80956 9.10205L8.35261 9.37456C8.3139 9.39713 8.27805 9.41756 8.24237 9.43733C7.17755 10.0275 6.13669 10.166 4.58218 9.75476C4.92681 11.3251 6.32619 12.5 8 12.5C9.86627 12.5 11.3914 11.0393 11.4944 9.19882C10.375 8.54307 9.71097 8.58772 8.80956 9.10205ZM8 5.5C6.16939 5.5 4.66702 6.9054 4.51301 8.69611C6.01129 9.15163 6.85427 9.06333 7.75763 8.56267L8.19657 8.30203C9.25907 7.66829 10.1761 7.50107 11.3569 8.00908C10.9306 6.55885 9.58896 5.5 8 5.5ZM12.5 2.5V3.5H10.5V2.5H12.5Z" fill="black" fill-opacity="0.9"/>
</g>
<defs>
<clipPath id="clip0_8_122">
<rect width="16" height="16" fill="white"/>
</clipPath>
</defs>
</svg>
