<svg width="12" height="12" viewBox="0 0 12 12" fill="none" xmlns="http://www.w3.org/2000/svg">
<path d="M9.561 0.639743C9.51488 0.639743 9.468 0.656993 9.42975 0.694868L9 1.12499L8.51513 0.640118C8.442 0.566993 8.346 0.530243 8.25 0.530243C8.154 0.530243 8.058 0.566993 7.98487 0.640118L7.5 1.12499L7.01513 0.640118C6.942 0.566993 6.846 0.530243 6.75 0.530243C6.654 0.530243 6.558 0.566993 6.48487 0.640118L6 1.12499L5.51512 0.640118C5.442 0.566993 5.346 0.530243 5.25 0.530243C5.154 0.530243 5.058 0.566993 4.98488 0.640118L4.5 1.12499L4.01512 0.640118C3.942 0.566993 3.846 0.530243 3.75 0.530243C3.654 0.530243 3.558 0.566993 3.48488 0.640118L3 1.12499L2.57025 0.695243C2.532 0.656993 2.48513 0.640118 2.439 0.640118C2.34263 0.639743 2.25 0.714743 2.25 0.827618V11.1724C2.25 11.2852 2.34263 11.3602 2.439 11.3602C2.48513 11.3602 2.532 11.343 2.57025 11.3051L3 10.875L3.48488 11.3599C3.558 11.433 3.654 11.4697 3.75 11.4697C3.846 11.4697 3.942 11.433 4.01512 11.3599L4.5 10.875L4.98488 11.3599C5.058 11.433 5.154 11.4697 5.25 11.4697C5.346 11.4697 5.442 11.433 5.51512 11.3599L6 10.875L6.48487 11.3599C6.558 11.433 6.654 11.4697 6.75 11.4697C6.846 11.4697 6.942 11.433 7.01513 11.3599L7.5 10.875L7.98487 11.3599C8.058 11.433 8.154 11.4697 8.25 11.4697C8.346 11.4697 8.442 11.433 8.51513 11.3599L9 10.875L9.42975 11.3047C9.468 11.343 9.51488 11.3599 9.561 11.3599C9.65738 11.3599 9.75 11.2849 9.75 11.172V0.827618C9.75 0.714743 9.65738 0.639743 9.561 0.639743ZM9.375 10.7197L9.26513 10.6099C9.192 10.5367 9.096 10.5 9 10.5C8.904 10.5 8.808 10.5367 8.73487 10.6099L8.25 11.0947L7.76513 10.6099C7.692 10.5367 7.596 10.5 7.5 10.5C7.404 10.5 7.308 10.5367 7.23487 10.6099L6.75 11.0947L6.26513 10.6099C6.192 10.5367 6.096 10.5 6 10.5C5.904 10.5 5.808 10.5367 5.73488 10.6099L5.25 11.0947L4.76512 10.6099C4.692 10.5367 4.596 10.5 4.5 10.5C4.404 10.5 4.308 10.5367 4.23488 10.6099L3.75 11.0947L3.26512 10.6099C3.192 10.5367 3.096 10.5 3 10.5C2.904 10.5 2.808 10.5367 2.73488 10.6099L2.625 10.7197V1.28024L2.73488 1.39012C2.808 1.46324 2.904 1.49999 3 1.49999C3.096 1.49999 3.192 1.46324 3.26512 1.39012L3.75 0.905243L4.23488 1.39012C4.308 1.46324 4.404 1.49999 4.5 1.49999C4.596 1.49999 4.692 1.46324 4.76512 1.39012L5.24962 0.905243H5.25L5.73488 1.39012C5.80538 1.46062 5.90063 1.49999 6 1.49999C6.09937 1.49999 6.195 1.46062 6.26513 1.39012L6.75 0.905243L7.23487 1.39012C7.30837 1.46324 7.40438 1.49999 7.5 1.49999C7.596 1.49999 7.692 1.46324 7.76513 1.39012L8.25 0.905243L8.73487 1.39012C8.805 1.46062 8.90063 1.49999 9 1.49999C9.09937 1.49999 9.195 1.46062 9.26513 1.39012L9.375 1.28024V10.7197ZM6 2.81249C6 2.91599 5.916 2.99999 5.8125 2.99999H3.9375C3.834 2.99999 3.75 2.91599 3.75 2.81249C3.75 2.70899 3.834 2.62499 3.9375 2.62499H5.8125C5.916 2.62499 6 2.70899 6 2.81249ZM6 6.18749C6 6.29099 5.916 6.37499 5.8125 6.37499H3.9375C3.834 6.37499 3.75 6.29099 3.75 6.18749C3.75 6.08399 3.834 5.99999 3.9375 5.99999H5.8125C5.916 5.99999 6 6.08399 6 6.18749ZM3.75 3.93749C3.75 3.83399 3.834 3.74999 3.9375 3.74999H5.0625C5.166 3.74999 5.25 3.83399 5.25 3.93749C5.25 4.04099 5.166 4.12499 5.0625 4.12499H3.9375C3.834 4.12499 3.75 4.04099 3.75 3.93749ZM8.25 3.93749C8.25 4.04099 8.166 4.12499 8.0625 4.12499H7.6875C7.584 4.12499 7.5 4.04099 7.5 3.93749C7.5 3.83399 7.584 3.74999 7.6875 3.74999H8.0625C8.166 3.74999 8.25 3.83399 8.25 3.93749ZM8.25 2.81249C8.25 2.91599 8.166 2.99999 8.0625 2.99999H7.6875C7.584 2.99999 7.5 2.91599 7.5 2.81249C7.5 2.70899 7.584 2.62499 7.6875 2.62499H8.0625C8.166 2.62499 8.25 2.70899 8.25 2.81249ZM8.25 5.06249C8.25 5.16599 8.166 5.24999 8.0625 5.24999H7.6875C7.584 5.24999 7.5 5.16599 7.5 5.06249C7.5 4.95899 7.584 4.87499 7.6875 4.87499H8.0625C8.166 4.87499 8.25 4.95899 8.25 5.06249ZM8.25 6.18749C8.25 6.29099 8.166 6.37499 8.0625 6.37499H7.6875C7.584 6.37499 7.5 6.29099 7.5 6.18749C7.5 6.08399 7.584 5.99999 7.6875 5.99999H8.0625C8.166 5.99999 8.25 6.08399 8.25 6.18749ZM8.25 8.43749C8.25 8.54099 8.166 8.62499 8.0625 8.62499H7.6875C7.584 8.62499 7.5 8.54099 7.5 8.43749C7.5 8.33399 7.584 8.24999 7.6875 8.24999H8.0625C8.166 8.24999 8.25 8.33399 8.25 8.43749ZM5.25 8.43749C5.25 8.54099 5.166 8.62499 5.0625 8.62499H3.9375C3.834 8.62499 3.75 8.54099 3.75 8.43749C3.75 8.33399 3.834 8.24999 3.9375 8.24999H5.0625C5.166 8.24999 5.25 8.33399 5.25 8.43749ZM3.75 5.06249C3.75 4.95899 3.834 4.87499 3.9375 4.87499H5.4375C5.541 4.87499 5.625 4.95899 5.625 5.06249C5.625 5.16599 5.541 5.24999 5.4375 5.24999H3.9375C3.834 5.24999 3.75 5.16599 3.75 5.06249Z" fill="#0B1719"/>
</svg>
