<svg width="16" height="6" viewBox="0 0 16 6" fill="none" xmlns="http://www.w3.org/2000/svg">
<path d="M1.03643 5.79302C0.365103 5.06752 0.00843238 3.99674 0.00615977 2.91395C0.00388716 1.83117 0.35606 0.758862 1.02434 0.0305885C1.54467 0.0462596 2.5125 0.168312 3.48027 0.408073C4.20337 0.587236 4.91991 0.841034 5.43939 1.12761C5.25531 1.328 5.15993 1.5921 5.09078 1.88884C5.07401 1.96146 5.05952 2.03459 5.04732 2.10812L3.10615 1.55794L2.94317 2.13282L4.98881 2.71262C4.98668 2.7761 4.98525 2.83977 4.98539 2.9035C4.98552 2.96724 4.98722 3.0309 4.98961 3.09436L2.94643 3.68275L3.11182 4.25694L5.05066 3.69862C5.06315 3.7721 5.07794 3.84518 5.095 3.91774C5.16543 4.21416 5.26192 4.47786 5.44684 4.6775C4.92857 4.96623 4.21313 5.22303 3.49076 5.40523C2.52397 5.64905 1.55666 5.77516 1.03643 5.79302ZM14.5896 5.76457C14.0692 5.7489 13.1014 5.62685 12.1336 5.38709C11.4105 5.20792 10.694 4.95412 10.1745 4.66755C10.3586 4.46716 10.454 4.20306 10.5231 3.90632C10.5397 3.83525 10.554 3.76185 10.5666 3.68704L12.5078 4.23722L12.6707 3.66234L10.6251 3.08254C10.6272 3.01906 10.6286 2.95539 10.6285 2.89166C10.6284 2.82792 10.6267 2.76426 10.6243 2.70079L12.6675 2.11241L12.5021 1.53822L10.5632 2.09654C10.5507 2.02306 10.536 1.94998 10.5189 1.87741C10.4485 1.581 10.352 1.3173 10.1671 1.11766C10.6853 0.828933 11.4008 0.572129 12.1231 0.389932C13.0899 0.146111 14.0572 0.0199976 14.5774 0.00214242C15.2488 0.727637 15.6055 1.79842 15.6077 2.88121C15.61 3.96399 15.2578 5.0363 14.5896 5.76457ZM7.8105 4.59052C7.36002 4.59146 6.90843 4.55948 6.55033 4.49799C6.19222 4.43647 5.92381 4.31083 5.8966 4.28373C5.83413 4.22149 5.73644 4.03251 5.67642 3.77969C5.61637 3.52691 5.58355 3.21428 5.5829 2.90225C5.58224 2.59022 5.61375 2.27745 5.67274 2.02438C5.73169 1.77135 5.82859 1.58196 5.8908 1.51946C5.91789 1.49225 6.18578 1.36548 6.54362 1.30246C6.90146 1.23946 7.35291 1.20559 7.8034 1.20464C8.25389 1.2037 8.70547 1.23568 9.06357 1.29717C9.42168 1.35869 9.69009 1.48433 9.7173 1.51143C9.77977 1.57367 9.87746 1.76265 9.93748 2.01546C9.99753 2.26825 10.0304 2.58088 10.031 2.89291C10.0317 3.20494 10.0002 3.51771 9.94117 3.77078C9.88221 4.02381 9.78531 4.21319 9.7231 4.2757C9.69601 4.30291 9.42812 4.42968 9.07028 4.4927C8.71244 4.55569 8.26099 4.58957 7.8105 4.59052Z" fill="#1F1A16"/>
</svg>
